<svg xmlns="http://www.w3.org/2000/svg" xmlns:xlink="http://www.w3.org/1999/xlink" width="1280" zoomAndPan="magnify" viewBox="0 0 960 959.999988" height="1280" preserveAspectRatio="xMidYMid meet" version="1.0"><defs><clipPath id="f495a655b9"><path d="M 399 177.875 L 431 177.875 L 431 272 L 399 272 Z M 399 177.875 " clip-rule="nonzero"/></clipPath><clipPath id="6638b1e517"><path d="M 177.875 399 L 272 399 L 272 431 L 177.875 431 Z M 177.875 399 " clip-rule="nonzero"/></clipPath></defs><rect x="-96" width="1152" fill="#ffffff" y="-95.999999" height="1151.999986" fill-opacity="1"/><rect x="-96" width="1152" fill="#ffffff" y="-95.999999" height="1151.999986" fill-opacity="1"/><rect x="-96" width="1152" fill="#f8eaff" y="-95.999999" height="1151.999986" fill-opacity="1"/><path fill="#8b73ff" d="M 750.15625 335.570312 C 750.171875 331.386719 749.984375 327.210938 749.589844 323.046875 C 749.195312 318.882812 748.601562 314.746094 747.800781 310.640625 C 747 306.535156 746 302.476562 744.800781 298.46875 C 743.605469 294.460938 742.210938 290.523438 740.625 286.652344 C 739.039062 282.78125 737.269531 278.996094 735.308594 275.300781 C 733.351562 271.601562 731.21875 268.011719 728.90625 264.523438 C 726.59375 261.039062 724.117188 257.671875 721.476562 254.429688 C 718.835938 251.183594 716.039062 248.078125 713.09375 245.109375 C 711.585938 243.671875 710.046875 242.273438 708.472656 240.910156 C 706.898438 239.546875 705.292969 238.222656 703.65625 236.933594 C 702.019531 235.648438 700.351562 234.398438 698.65625 233.191406 C 696.960938 231.984375 695.234375 230.816406 693.484375 229.691406 C 691.730469 228.566406 689.953125 227.484375 688.148438 226.441406 C 686.347656 225.402344 684.519531 224.402344 682.667969 223.449219 C 680.816406 222.496094 678.945312 221.585938 677.050781 220.722656 C 675.15625 219.855469 673.242188 219.039062 671.308594 218.265625 C 669.375 217.488281 667.425781 216.761719 665.457031 216.082031 C 663.492188 215.402344 661.507812 214.765625 659.507812 214.179688 C 657.511719 213.59375 655.5 213.054688 653.476562 212.5625 C 651.453125 212.074219 649.417969 211.632812 647.375 211.238281 C 645.332031 210.84375 643.277344 210.496094 641.214844 210.203125 C 639.15625 209.90625 637.089844 209.660156 635.015625 209.460938 C 632.941406 209.261719 630.867188 209.113281 628.785156 209.015625 C 626.707031 208.914062 624.625 208.867188 622.542969 208.867188 C 620.460938 208.867188 618.378906 208.914062 616.300781 209.015625 C 614.21875 209.113281 612.144531 209.261719 610.070312 209.460938 C 607.996094 209.660156 605.929688 209.90625 603.867188 210.203125 C 601.808594 210.496094 599.753906 210.84375 597.710938 211.238281 C 595.664062 211.632812 593.632812 212.074219 591.609375 212.5625 C 589.585938 213.054688 587.574219 213.59375 585.574219 214.179688 C 583.578125 214.765625 581.59375 215.402344 579.625 216.082031 C 577.660156 216.761719 575.707031 217.488281 573.773438 218.265625 C 571.839844 219.039062 569.929688 219.855469 568.035156 220.722656 C 566.140625 221.585938 564.265625 222.496094 562.417969 223.449219 C 560.566406 224.402344 558.738281 225.402344 556.933594 226.441406 C 555.132812 227.484375 553.351562 228.566406 551.601562 229.691406 C 549.851562 230.816406 548.125 231.984375 546.429688 233.191406 C 544.734375 234.398438 543.066406 235.648438 541.429688 236.933594 C 539.792969 238.222656 538.1875 239.546875 536.613281 240.910156 C 535.039062 242.273438 533.5 243.671875 531.992188 245.109375 L 487.996094 289.09375 C 487.3125 289.8125 486.703125 290.589844 486.171875 291.429688 C 485.640625 292.265625 485.191406 293.144531 484.832031 294.070312 C 484.46875 294.992188 484.199219 295.945312 484.019531 296.921875 C 483.84375 297.894531 483.757812 298.878906 483.773438 299.871094 C 483.785156 300.863281 483.890625 301.847656 484.09375 302.816406 C 484.296875 303.789062 484.59375 304.730469 484.976562 305.648438 C 485.363281 306.5625 485.832031 307.429688 486.386719 308.253906 C 486.941406 309.078125 487.566406 309.839844 488.269531 310.542969 C 488.972656 311.242188 489.734375 311.871094 490.554688 312.425781 C 491.378906 312.980469 492.246094 313.449219 493.160156 313.835938 C 494.074219 314.222656 495.019531 314.515625 495.988281 314.71875 C 496.960938 314.921875 497.941406 315.03125 498.933594 315.042969 C 499.925781 315.058594 500.910156 314.976562 501.886719 314.796875 C 502.863281 314.621094 503.8125 314.351562 504.738281 313.988281 C 505.664062 313.628906 506.542969 313.179688 507.382812 312.648438 C 508.21875 312.117188 508.996094 311.507812 509.71875 310.828125 L 553.710938 266.839844 C 554.839844 265.71875 555.992188 264.625 557.171875 263.554688 C 558.355469 262.488281 559.558594 261.453125 560.792969 260.445312 C 562.023438 259.4375 563.277344 258.460938 564.558594 257.515625 C 565.835938 256.570312 567.140625 255.65625 568.464844 254.773438 C 569.789062 253.890625 571.132812 253.042969 572.5 252.226562 C 573.863281 251.410156 575.25 250.628906 576.652344 249.878906 C 578.058594 249.132812 579.480469 248.417969 580.917969 247.738281 C 582.359375 247.0625 583.8125 246.417969 585.285156 245.8125 C 586.753906 245.203125 588.238281 244.632812 589.738281 244.101562 C 591.238281 243.566406 592.75 243.066406 594.269531 242.609375 C 595.792969 242.148438 597.328125 241.726562 598.871094 241.339844 C 600.414062 240.957031 601.96875 240.609375 603.527344 240.300781 C 605.089844 239.992188 606.65625 239.722656 608.230469 239.488281 C 609.804688 239.257812 611.382812 239.0625 612.96875 238.910156 C 614.550781 238.753906 616.136719 238.640625 617.726562 238.5625 C 619.316406 238.484375 620.90625 238.449219 622.496094 238.449219 C 624.089844 238.449219 625.679688 238.492188 627.269531 238.570312 C 628.855469 238.648438 630.445312 238.769531 632.027344 238.925781 C 633.609375 239.082031 635.1875 239.277344 636.761719 239.511719 C 638.335938 239.746094 639.902344 240.019531 641.464844 240.332031 C 643.023438 240.644531 644.574219 240.992188 646.117188 241.378906 C 647.660156 241.765625 649.195312 242.191406 650.71875 242.65625 C 652.238281 243.117188 653.75 243.617188 655.246094 244.152344 C 656.746094 244.691406 658.230469 245.265625 659.699219 245.875 C 661.167969 246.484375 662.621094 247.128906 664.0625 247.808594 C 665.5 248.488281 666.917969 249.207031 668.320312 249.957031 C 669.726562 250.707031 671.109375 251.492188 672.472656 252.308594 C 673.839844 253.128906 675.179688 253.980469 676.503906 254.863281 C 677.828125 255.746094 679.128906 256.664062 680.40625 257.609375 C 681.683594 258.558594 682.9375 259.539062 684.167969 260.546875 C 685.398438 261.558594 686.601562 262.597656 687.78125 263.664062 C 688.957031 264.734375 690.109375 265.832031 691.234375 266.957031 C 692.359375 268.082031 693.457031 269.230469 694.527344 270.410156 C 695.59375 271.589844 696.632812 272.792969 697.644531 274.023438 C 698.652344 275.253906 699.632812 276.507812 700.578125 277.785156 C 701.527344 279.0625 702.445312 280.363281 703.328125 281.6875 C 704.210938 283.007812 705.0625 284.351562 705.882812 285.71875 C 706.699219 287.082031 707.484375 288.464844 708.234375 289.867188 C 708.984375 291.273438 709.703125 292.691406 710.382812 294.128906 C 711.0625 295.570312 711.707031 297.023438 712.316406 298.492188 C 712.925781 299.960938 713.5 301.445312 714.039062 302.945312 C 714.574219 304.441406 715.074219 305.953125 715.535156 307.472656 C 716 308.996094 716.425781 310.527344 716.8125 312.074219 C 717.199219 313.617188 717.546875 315.167969 717.859375 316.726562 C 718.171875 318.289062 718.445312 319.855469 718.679688 321.429688 C 718.914062 323.003906 719.109375 324.582031 719.265625 326.164062 C 719.421875 327.746094 719.542969 329.332031 719.621094 330.921875 C 719.699219 332.511719 719.742188 334.101562 719.742188 335.695312 C 719.742188 337.285156 719.707031 338.875 719.628906 340.464844 C 719.550781 342.054688 719.4375 343.640625 719.28125 345.222656 C 719.128906 346.808594 718.933594 348.386719 718.703125 349.960938 C 718.46875 351.535156 718.199219 353.101562 717.890625 354.664062 C 717.582031 356.222656 717.234375 357.777344 716.851562 359.320312 C 716.464844 360.863281 716.042969 362.398438 715.582031 363.917969 C 715.121094 365.441406 714.625 366.953125 714.089844 368.453125 C 713.558594 369.953125 712.988281 371.4375 712.378906 372.90625 C 711.773438 374.378906 711.128906 375.832031 710.453125 377.273438 C 709.773438 378.710938 709.058594 380.132812 708.3125 381.535156 C 707.5625 382.941406 706.78125 384.324219 705.964844 385.691406 C 705.148438 387.058594 704.300781 388.402344 703.417969 389.726562 C 702.535156 391.050781 701.621094 392.351562 700.675781 393.632812 C 699.730469 394.914062 698.753906 396.167969 697.746094 397.398438 C 696.738281 398.628906 695.703125 399.835938 694.632812 401.015625 C 693.566406 402.199219 692.472656 403.351562 691.351562 404.480469 L 579.789062 516.050781 C 578.660156 517.175781 577.507812 518.273438 576.324219 519.339844 C 575.144531 520.40625 573.9375 521.445312 572.707031 522.453125 C 571.472656 523.464844 570.21875 524.441406 568.9375 525.390625 C 567.65625 526.335938 566.355469 527.25 565.03125 528.136719 C 563.707031 529.019531 562.359375 529.867188 560.992188 530.6875 C 559.625 531.503906 558.242188 532.285156 556.835938 533.035156 C 555.429688 533.785156 554.007812 534.5 552.570312 535.179688 C 551.128906 535.859375 549.671875 536.503906 548.203125 537.113281 C 546.730469 537.722656 545.246094 538.292969 543.746094 538.828125 C 542.246094 539.363281 540.734375 539.863281 539.210938 540.324219 C 537.683594 540.785156 536.152344 541.210938 534.605469 541.597656 C 533.0625 541.984375 531.507812 542.332031 529.945312 542.640625 C 528.382812 542.949219 526.816406 543.222656 525.242188 543.457031 C 523.664062 543.6875 522.085938 543.882812 520.5 544.039062 C 518.917969 544.195312 517.328125 544.3125 515.738281 544.390625 C 514.148438 544.46875 512.554688 544.507812 510.964844 544.507812 C 509.371094 544.507812 507.78125 544.46875 506.191406 544.390625 C 504.597656 544.3125 503.011719 544.195312 501.425781 544.039062 C 499.84375 543.882812 498.261719 543.6875 496.6875 543.457031 C 495.113281 543.222656 493.542969 542.949219 491.980469 542.640625 C 490.417969 542.332031 488.867188 541.984375 487.320312 541.597656 C 485.777344 541.210938 484.242188 540.785156 482.71875 540.324219 C 481.195312 539.863281 479.683594 539.363281 478.183594 538.828125 C 476.683594 538.292969 475.199219 537.722656 473.726562 537.113281 C 472.253906 536.503906 470.800781 535.859375 469.359375 535.179688 C 467.917969 534.5 466.496094 533.785156 465.09375 533.035156 C 463.6875 532.285156 462.300781 531.503906 460.933594 530.6875 C 459.566406 529.867188 458.222656 529.019531 456.898438 528.136719 C 455.574219 527.25 454.269531 526.335938 452.992188 525.390625 C 451.710938 524.441406 450.453125 523.464844 449.222656 522.453125 C 447.992188 521.445312 446.785156 520.40625 445.601562 519.339844 C 444.421875 518.273438 443.265625 517.175781 442.140625 516.050781 C 437.390625 511.304688 433.171875 506.132812 429.476562 500.527344 C 425.78125 494.925781 422.6875 489.007812 420.199219 482.773438 C 419.820312 481.835938 419.355469 480.949219 418.800781 480.105469 C 418.25 479.261719 417.621094 478.480469 416.914062 477.761719 C 416.207031 477.042969 415.4375 476.398438 414.605469 475.828125 C 413.769531 475.261719 412.890625 474.78125 411.964844 474.386719 C 411.035156 473.992188 410.078125 473.691406 409.089844 473.484375 C 408.105469 473.277344 407.105469 473.167969 406.097656 473.160156 C 405.089844 473.148438 404.089844 473.238281 403.097656 473.425781 C 402.109375 473.613281 401.144531 473.894531 400.210938 474.269531 C 399.273438 474.648438 398.382812 475.109375 397.539062 475.664062 C 396.695312 476.214844 395.914062 476.84375 395.191406 477.546875 C 394.472656 478.253906 393.828125 479.023438 393.257812 479.855469 C 392.691406 480.6875 392.207031 481.566406 391.8125 482.496094 C 391.414062 483.421875 391.113281 484.378906 390.90625 485.367188 C 390.699219 486.351562 390.589844 487.351562 390.578125 488.359375 C 390.566406 489.367188 390.65625 490.367188 390.839844 491.359375 C 391.027344 492.347656 391.304688 493.3125 391.683594 494.246094 C 394.941406 502.40625 398.992188 510.148438 403.828125 517.480469 C 408.664062 524.816406 414.191406 531.585938 420.40625 537.792969 C 421.914062 539.226562 423.457031 540.625 425.03125 541.984375 C 426.609375 543.347656 428.214844 544.667969 429.851562 545.953125 C 431.492188 547.238281 433.15625 548.484375 434.855469 549.6875 C 436.550781 550.894531 438.277344 552.058594 440.03125 553.183594 C 441.78125 554.304688 443.558594 555.386719 445.363281 556.425781 C 447.167969 557.464844 448.996094 558.460938 450.847656 559.414062 C 452.699219 560.367188 454.570312 561.273438 456.464844 562.136719 C 458.359375 563 460.273438 563.816406 462.207031 564.589844 C 464.140625 565.363281 466.089844 566.085938 468.058594 566.765625 C 470.023438 567.445312 472.007812 568.078125 474.003906 568.664062 C 476.003906 569.25 478.011719 569.789062 480.035156 570.277344 C 482.058594 570.765625 484.09375 571.207031 486.136719 571.601562 C 488.183594 571.996094 490.234375 572.339844 492.292969 572.636719 C 494.355469 572.929688 496.421875 573.175781 498.492188 573.375 C 500.566406 573.574219 502.640625 573.71875 504.722656 573.820312 C 506.800781 573.917969 508.882812 573.96875 510.964844 573.96875 C 513.042969 573.96875 515.125 573.917969 517.203125 573.820312 C 519.285156 573.71875 521.359375 573.574219 523.433594 573.375 C 525.503906 573.175781 527.570312 572.929688 529.632812 572.636719 C 531.691406 572.339844 533.746094 571.996094 535.789062 571.601562 C 537.832031 571.207031 539.867188 570.765625 541.890625 570.277344 C 543.914062 569.789062 545.921875 569.25 547.921875 568.664062 C 549.917969 568.078125 551.902344 567.445312 553.867188 566.765625 C 555.835938 566.085938 557.785156 565.363281 559.71875 564.589844 C 561.652344 563.816406 563.566406 563 565.460938 562.136719 C 567.355469 561.273438 569.226562 560.367188 571.078125 559.414062 C 572.929688 558.460938 574.757812 557.464844 576.5625 556.425781 C 578.367188 555.386719 580.144531 554.304688 581.898438 553.183594 C 583.648438 552.058594 585.375 550.894531 587.070312 549.6875 C 588.769531 548.484375 590.4375 547.238281 592.074219 545.953125 C 593.710938 544.667969 595.316406 543.347656 596.894531 541.984375 C 598.46875 540.625 600.011719 539.226562 601.519531 537.792969 L 713.082031 426.21875 C 716.035156 423.242188 718.832031 420.132812 721.480469 416.882812 C 724.128906 413.632812 726.605469 410.257812 728.921875 406.765625 C 731.238281 403.269531 733.375 399.671875 735.332031 395.964844 C 737.292969 392.261719 739.066406 388.46875 740.652344 384.589844 C 742.238281 380.710938 743.632812 376.761719 744.832031 372.746094 C 746.027344 368.730469 747.027344 364.664062 747.824219 360.546875 C 748.621094 356.433594 749.214844 352.289062 749.605469 348.117188 C 749.992188 343.945312 750.175781 339.761719 750.15625 335.570312 Z M 750.15625 335.570312 " fill-opacity="1" fill-rule="nonzero"/><path fill="#8b73ff" d="M 208.128906 622.542969 C 208.105469 626.726562 208.289062 630.902344 208.675781 635.070312 C 209.066406 639.238281 209.65625 643.378906 210.453125 647.488281 C 211.246094 651.597656 212.242188 655.65625 213.4375 659.667969 C 214.632812 663.679688 216.019531 667.625 217.601562 671.5 C 219.183594 675.375 220.953125 679.160156 222.910156 682.863281 C 224.863281 686.5625 226.996094 690.160156 229.304688 693.652344 C 231.613281 697.140625 234.089844 700.511719 236.726562 703.757812 C 239.367188 707.007812 242.160156 710.117188 245.109375 713.089844 C 246.597656 714.554688 248.125 715.984375 249.6875 717.375 C 251.246094 718.765625 252.839844 720.121094 254.46875 721.433594 C 256.09375 722.746094 257.75 724.019531 259.4375 725.253906 C 261.128906 726.488281 262.84375 727.679688 264.589844 728.828125 C 266.335938 729.976562 268.109375 731.085938 269.910156 732.148438 C 271.710938 733.210938 273.535156 734.230469 275.382812 735.207031 C 277.230469 736.183594 279.105469 737.113281 281 737.996094 C 282.894531 738.882812 284.808594 739.71875 286.742188 740.511719 C 288.679688 741.300781 290.632812 742.046875 292.601562 742.742188 C 294.574219 743.441406 296.558594 744.089844 298.5625 744.6875 C 300.566406 745.289062 302.582031 745.839844 304.613281 746.34375 C 306.640625 746.84375 308.679688 747.296875 310.734375 747.699219 C 312.785156 748.105469 314.84375 748.457031 316.914062 748.761719 C 318.980469 749.0625 321.054688 749.316406 323.136719 749.519531 C 325.21875 749.722656 327.300781 749.875 329.390625 749.976562 C 331.480469 750.078125 333.566406 750.128906 335.660156 750.128906 C 337.75 750.128906 339.839844 750.078125 341.925781 749.976562 C 344.015625 749.875 346.101562 749.722656 348.179688 749.519531 C 350.261719 749.316406 352.335938 749.0625 354.40625 748.761719 C 356.472656 748.457031 358.535156 748.105469 360.585938 747.699219 C 362.636719 747.296875 364.675781 746.84375 366.707031 746.34375 C 368.734375 745.839844 370.753906 745.289062 372.753906 744.6875 C 374.757812 744.089844 376.746094 743.441406 378.714844 742.742188 C 380.6875 742.046875 382.640625 741.300781 384.574219 740.511719 C 386.511719 739.71875 388.425781 738.882812 390.320312 737.996094 C 392.214844 737.113281 394.085938 736.183594 395.933594 735.207031 C 397.785156 734.230469 399.609375 733.210938 401.410156 732.148438 C 403.207031 731.085938 404.980469 729.976562 406.726562 728.828125 C 408.472656 727.679688 410.191406 726.488281 411.878906 725.253906 C 413.566406 724.019531 415.222656 722.746094 416.851562 721.433594 C 418.476562 720.121094 420.070312 718.765625 421.632812 717.375 C 423.191406 715.984375 424.71875 714.554688 426.210938 713.089844 L 470.363281 668.945312 C 471.046875 668.226562 471.652344 667.449219 472.183594 666.609375 C 472.714844 665.773438 473.160156 664.894531 473.519531 663.96875 C 473.878906 663.046875 474.148438 662.097656 474.324219 661.121094 C 474.5 660.148438 474.582031 659.164062 474.570312 658.171875 C 474.554688 657.183594 474.449219 656.203125 474.246094 655.230469 C 474.042969 654.261719 473.746094 653.320312 473.363281 652.40625 C 472.976562 651.492188 472.507812 650.625 471.953125 649.804688 C 471.398438 648.980469 470.773438 648.21875 470.074219 647.519531 C 469.371094 646.816406 468.609375 646.191406 467.789062 645.636719 C 466.964844 645.082031 466.097656 644.613281 465.1875 644.226562 C 464.273438 643.839844 463.332031 643.546875 462.363281 643.34375 C 461.390625 643.140625 460.410156 643.03125 459.417969 643.015625 C 458.429688 643 457.445312 643.082031 456.46875 643.257812 C 455.496094 643.433594 454.546875 643.703125 453.621094 644.0625 C 452.699219 644.421875 451.816406 644.867188 450.980469 645.398438 C 450.144531 645.929688 449.363281 646.535156 448.644531 647.214844 L 404.488281 691.359375 C 403.363281 692.484375 402.207031 693.578125 401.027344 694.644531 C 399.847656 695.714844 398.640625 696.75 397.410156 697.757812 C 396.179688 698.765625 394.921875 699.742188 393.644531 700.691406 C 392.363281 701.636719 391.0625 702.550781 389.738281 703.433594 C 388.414062 704.316406 387.070312 705.164062 385.703125 705.980469 C 384.335938 706.796875 382.953125 707.582031 381.546875 708.328125 C 380.144531 709.078125 378.722656 709.792969 377.28125 710.46875 C 375.84375 711.148438 374.386719 711.792969 372.917969 712.398438 C 371.445312 713.007812 369.960938 713.578125 368.460938 714.113281 C 366.964844 714.648438 365.453125 715.144531 363.929688 715.605469 C 362.40625 716.066406 360.871094 716.488281 359.328125 716.875 C 357.785156 717.257812 356.230469 717.605469 354.671875 717.914062 C 353.109375 718.222656 351.542969 718.496094 349.96875 718.726562 C 348.394531 718.957031 346.8125 719.152344 345.230469 719.308594 C 343.644531 719.460938 342.058594 719.578125 340.46875 719.65625 C 338.878906 719.730469 337.289062 719.769531 335.699219 719.769531 C 334.109375 719.765625 332.515625 719.726562 330.929688 719.648438 C 329.339844 719.570312 327.753906 719.449219 326.167969 719.292969 C 324.585938 719.136719 323.007812 718.941406 321.433594 718.707031 C 319.859375 718.472656 318.289062 718.199219 316.730469 717.886719 C 315.167969 717.578125 313.617188 717.226562 312.074219 716.839844 C 310.53125 716.453125 308.996094 716.027344 307.476562 715.566406 C 305.953125 715.101562 304.441406 714.601562 302.945312 714.066406 C 301.445312 713.527344 299.960938 712.957031 298.492188 712.347656 C 297.023438 711.738281 295.566406 711.089844 294.128906 710.410156 C 292.691406 709.730469 291.269531 709.015625 289.867188 708.265625 C 288.464844 707.511719 287.078125 706.730469 285.714844 705.910156 C 284.351562 705.09375 283.007812 704.242188 281.683594 703.355469 C 280.359375 702.472656 279.058594 701.554688 277.78125 700.609375 C 276.503906 699.660156 275.25 698.679688 274.019531 697.671875 C 272.789062 696.660156 271.585938 695.621094 270.40625 694.554688 C 269.226562 693.484375 268.074219 692.386719 266.949219 691.261719 C 265.824219 690.136719 264.726562 688.984375 263.660156 687.804688 C 262.589844 686.625 261.550781 685.421875 260.539062 684.191406 C 259.53125 682.960938 258.550781 681.707031 257.605469 680.429688 C 256.65625 679.152344 255.738281 677.851562 254.855469 676.527344 C 253.972656 675.207031 253.121094 673.863281 252.300781 672.496094 C 251.484375 671.132812 250.699219 669.746094 249.949219 668.34375 C 249.199219 666.941406 248.480469 665.519531 247.800781 664.082031 C 247.121094 662.644531 246.476562 661.191406 245.867188 659.71875 C 245.257812 658.25 244.683594 656.765625 244.144531 655.269531 C 243.609375 653.769531 243.109375 652.257812 242.648438 650.738281 C 242.183594 649.214844 241.757812 647.679688 241.371094 646.136719 C 240.984375 644.59375 240.636719 643.042969 240.324219 641.480469 C 240.011719 639.921875 239.738281 638.351562 239.503906 636.78125 C 239.269531 635.207031 239.074219 633.625 238.917969 632.042969 C 238.761719 630.460938 238.644531 628.875 238.5625 627.285156 C 238.484375 625.695312 238.445312 624.105469 238.445312 622.511719 C 238.441406 620.921875 238.480469 619.332031 238.558594 617.742188 C 238.632812 616.152344 238.75 614.566406 238.90625 612.980469 C 239.058594 611.398438 239.253906 609.820312 239.484375 608.246094 C 239.71875 606.671875 239.988281 605.101562 240.296875 603.542969 C 240.605469 601.980469 240.953125 600.425781 241.339844 598.882812 C 241.722656 597.339844 242.148438 595.804688 242.605469 594.28125 C 243.066406 592.757812 243.566406 591.25 244.097656 589.75 C 244.632812 588.25 245.203125 586.765625 245.8125 585.296875 C 246.417969 583.824219 247.0625 582.367188 247.742188 580.929688 C 248.421875 579.492188 249.132812 578.070312 249.882812 576.664062 C 250.632812 575.261719 251.414062 573.875 252.230469 572.507812 C 253.046875 571.144531 253.894531 569.796875 254.777344 568.472656 C 255.660156 567.148438 256.574219 565.847656 257.523438 564.566406 C 258.46875 563.289062 259.445312 562.035156 260.453125 560.800781 C 261.460938 559.570312 262.5 558.363281 263.566406 557.183594 C 264.632812 556.003906 265.726562 554.847656 266.851562 553.722656 L 378.414062 442.148438 C 379.839844 440.734375 381.308594 439.363281 382.816406 438.035156 C 384.328125 436.710938 385.878906 435.429688 387.46875 434.199219 C 389.058594 432.96875 390.683594 431.789062 392.34375 430.660156 C 394.007812 429.53125 395.703125 428.453125 397.433594 427.425781 C 399.160156 426.402344 400.917969 425.429688 402.707031 424.515625 C 404.496094 423.597656 406.3125 422.738281 408.15625 421.933594 C 409.996094 421.128906 411.863281 420.378906 413.75 419.691406 C 415.636719 419 417.546875 418.371094 419.472656 417.800781 C 421.398438 417.226562 423.34375 416.714844 425.300781 416.265625 C 427.257812 415.8125 429.230469 415.421875 431.210938 415.09375 C 433.195312 414.761719 435.1875 414.492188 437.1875 414.285156 C 439.183594 414.078125 441.1875 413.933594 443.199219 413.851562 C 445.207031 413.769531 447.214844 413.746094 449.222656 413.789062 C 451.234375 413.828125 453.242188 413.933594 455.242188 414.097656 C 457.246094 414.261719 459.242188 414.488281 461.234375 414.777344 C 463.222656 415.066406 465.199219 415.414062 467.167969 415.824219 C 469.136719 416.234375 471.089844 416.707031 473.027344 417.234375 C 474.964844 417.765625 476.886719 418.355469 478.789062 419.007812 C 480.691406 419.65625 482.570312 420.363281 484.429688 421.128906 C 486.289062 421.894531 488.121094 422.71875 489.929688 423.597656 C 491.738281 424.476562 493.515625 425.410156 495.265625 426.398438 C 497.015625 427.386719 498.734375 428.429688 500.417969 429.523438 C 502.105469 430.617188 503.753906 431.765625 505.371094 432.960938 C 506.984375 434.15625 508.5625 435.402344 510.097656 436.695312 C 511.636719 437.992188 513.132812 439.332031 514.589844 440.71875 C 516.042969 442.105469 517.457031 443.535156 518.820312 445.007812 C 520.1875 446.480469 521.507812 447.996094 522.78125 449.550781 C 524.054688 451.105469 525.28125 452.699219 526.453125 454.332031 C 527.628906 455.960938 528.753906 457.628906 529.824219 459.328125 C 530.898438 461.027344 531.917969 462.761719 532.882812 464.523438 C 533.847656 466.285156 534.757812 468.078125 535.609375 469.898438 C 536.464844 471.714844 537.261719 473.558594 538.003906 475.429688 C 538.378906 476.367188 538.84375 477.257812 539.394531 478.101562 C 539.945312 478.949219 540.578125 479.730469 541.28125 480.453125 C 541.988281 481.175781 542.757812 481.820312 543.59375 482.390625 C 544.425781 482.960938 545.308594 483.445312 546.234375 483.839844 C 547.164062 484.238281 548.121094 484.539062 549.109375 484.746094 C 550.097656 484.953125 551.097656 485.0625 552.109375 485.074219 C 553.117188 485.082031 554.117188 484.996094 555.109375 484.808594 C 556.101562 484.621094 557.066406 484.339844 558.003906 483.960938 C 558.941406 483.585938 559.832031 483.121094 560.675781 482.566406 C 561.523438 482.015625 562.304688 481.386719 563.027344 480.679688 C 563.746094 479.972656 564.394531 479.203125 564.960938 478.367188 C 565.53125 477.53125 566.011719 476.652344 566.410156 475.722656 C 566.804688 474.792969 567.105469 473.835938 567.3125 472.847656 C 567.519531 471.859375 567.625 470.859375 567.636719 469.847656 C 567.644531 468.839844 567.554688 467.839844 567.367188 466.847656 C 567.179688 465.855469 566.898438 464.890625 566.519531 463.953125 C 565.542969 461.5 564.492188 459.074219 563.367188 456.6875 C 562.238281 454.296875 561.042969 451.941406 559.769531 449.625 C 558.5 447.308594 557.15625 445.035156 555.746094 442.800781 C 554.332031 440.570312 552.855469 438.382812 551.308594 436.238281 C 549.761719 434.097656 548.148438 432.003906 546.472656 429.964844 C 544.796875 427.921875 543.058594 425.933594 541.261719 423.996094 C 539.460938 422.0625 537.605469 420.183594 535.691406 418.363281 C 533.773438 416.542969 531.804688 414.785156 529.78125 413.085938 C 527.757812 411.386719 525.683594 409.75 523.558594 408.179688 C 521.4375 406.609375 519.265625 405.105469 517.046875 403.667969 C 514.832031 402.230469 512.570312 400.863281 510.269531 399.566406 C 507.96875 398.269531 505.628906 397.046875 503.25 395.890625 C 500.875 394.738281 498.464844 393.660156 496.019531 392.65625 C 493.574219 391.652344 491.101562 390.726562 488.601562 389.875 C 486.101562 389.023438 483.574219 388.25 481.027344 387.554688 C 478.476562 386.859375 475.910156 386.242188 473.324219 385.707031 C 470.734375 385.167969 468.132812 384.710938 465.519531 384.335938 C 462.90625 383.960938 460.28125 383.664062 457.648438 383.449219 C 455.011719 383.234375 452.375 383.101562 449.734375 383.050781 C 447.09375 383 444.453125 383.03125 441.8125 383.140625 C 439.171875 383.253906 436.539062 383.445312 433.910156 383.722656 C 431.285156 383.996094 428.667969 384.351562 426.058594 384.785156 C 423.453125 385.222656 420.863281 385.738281 418.289062 386.335938 C 415.714844 386.929688 413.164062 387.605469 410.632812 388.359375 C 408.097656 389.113281 405.59375 389.941406 403.109375 390.851562 C 400.628906 391.757812 398.179688 392.742188 395.757812 393.800781 C 393.339844 394.863281 390.953125 395.996094 388.601562 397.203125 C 386.253906 398.410156 383.941406 399.6875 381.671875 401.035156 C 379.398438 402.386719 377.171875 403.804688 374.988281 405.292969 C 372.804688 406.777344 370.667969 408.332031 368.578125 409.949219 C 366.492188 411.570312 364.457031 413.25 362.472656 414.996094 C 360.488281 416.742188 358.558594 418.546875 356.6875 420.410156 L 245.125 531.984375 C 242.179688 534.957031 239.382812 538.066406 236.742188 541.316406 C 234.101562 544.5625 231.628906 547.933594 229.316406 551.425781 C 227.007812 554.917969 224.875 558.511719 222.921875 562.214844 C 220.964844 565.917969 219.195312 569.703125 217.613281 573.578125 C 216.027344 577.453125 214.640625 581.398438 213.445312 585.410156 C 212.25 589.421875 211.253906 593.484375 210.457031 597.59375 C 209.660156 601.703125 209.070312 605.84375 208.679688 610.011719 C 208.289062 614.179688 208.105469 618.355469 208.128906 622.542969 Z M 208.128906 622.542969 " fill-opacity="1" fill-rule="nonzero"/><path fill="#8b73ff" d="M 346.519531 324.800781 L 266.835938 245.117188 C 266.117188 244.421875 265.339844 243.804688 264.5 243.265625 C 263.664062 242.722656 262.78125 242.265625 261.855469 241.894531 C 260.925781 241.527344 259.972656 241.25 258.992188 241.066406 C 258.011719 240.882812 257.023438 240.792969 256.023438 240.800781 C 255.027344 240.8125 254.039062 240.914062 253.0625 241.117188 C 252.085938 241.316406 251.136719 241.613281 250.214844 241.996094 C 249.296875 242.382812 248.421875 242.855469 247.59375 243.410156 C 246.761719 243.964844 245.996094 244.597656 245.289062 245.304688 C 244.585938 246.007812 243.953125 246.777344 243.398438 247.605469 C 242.84375 248.433594 242.371094 249.308594 241.984375 250.226562 C 241.597656 251.148438 241.304688 252.097656 241.105469 253.074219 C 240.902344 254.050781 240.796875 255.039062 240.789062 256.035156 C 240.78125 257.035156 240.871094 258.023438 241.054688 259.003906 C 241.238281 259.984375 241.515625 260.941406 241.882812 261.867188 C 242.253906 262.792969 242.710938 263.675781 243.25 264.515625 C 243.792969 265.351562 244.410156 266.128906 245.105469 266.847656 L 324.800781 346.519531 C 325.519531 347.222656 326.300781 347.847656 327.140625 348.398438 C 327.984375 348.949219 328.871094 349.414062 329.800781 349.792969 C 330.730469 350.171875 331.691406 350.457031 332.679688 350.648438 C 333.664062 350.84375 334.660156 350.9375 335.667969 350.9375 C 336.671875 350.9375 337.667969 350.84375 338.65625 350.648438 C 339.640625 350.457031 340.601562 350.171875 341.53125 349.792969 C 342.460938 349.414062 343.347656 348.949219 344.191406 348.398438 C 345.03125 347.847656 345.8125 347.222656 346.53125 346.519531 C 347.246094 345.808594 347.878906 345.03125 348.441406 344.191406 C 349 343.351562 349.472656 342.46875 349.855469 341.535156 C 350.242188 340.601562 350.53125 339.644531 350.726562 338.652344 C 350.925781 337.664062 351.023438 336.664062 351.019531 335.65625 C 351.019531 334.648438 350.921875 333.652344 350.726562 332.660156 C 350.527344 331.671875 350.234375 330.710938 349.851562 329.78125 C 349.464844 328.851562 348.992188 327.964844 348.429688 327.125 C 347.871094 326.289062 347.234375 325.511719 346.519531 324.800781 Z M 346.519531 324.800781 " fill-opacity="1" fill-rule="nonzero"/><g clip-path="url(#f495a655b9)"><path fill="#8b73ff" d="M 430.714844 255.976562 L 430.714844 192.21875 C 430.714844 191.210938 430.617188 190.210938 430.417969 189.222656 C 430.222656 188.230469 429.929688 187.269531 429.542969 186.339844 C 429.15625 185.40625 428.683594 184.519531 428.125 183.679688 C 427.5625 182.84375 426.925781 182.066406 426.210938 181.351562 C 425.5 180.636719 424.722656 180 423.882812 179.441406 C 423.042969 178.878906 422.160156 178.40625 421.226562 178.019531 C 420.292969 177.632812 419.332031 177.34375 418.34375 177.144531 C 417.355469 176.949219 416.355469 176.851562 415.34375 176.851562 C 414.335938 176.851562 413.335938 176.949219 412.347656 177.144531 C 411.355469 177.34375 410.394531 177.632812 409.464844 178.019531 C 408.53125 178.40625 407.644531 178.878906 406.808594 179.441406 C 405.96875 180 405.191406 180.636719 404.476562 181.351562 C 403.765625 182.066406 403.128906 182.84375 402.566406 183.679688 C 402.007812 184.519531 401.53125 185.40625 401.148438 186.339844 C 400.761719 187.269531 400.46875 188.230469 400.273438 189.222656 C 400.074219 190.210938 399.976562 191.210938 399.976562 192.21875 L 399.976562 255.976562 C 399.976562 256.984375 400.074219 257.984375 400.273438 258.972656 C 400.46875 259.960938 400.761719 260.921875 401.148438 261.855469 C 401.53125 262.789062 402.007812 263.675781 402.566406 264.511719 C 403.128906 265.351562 403.765625 266.128906 404.476562 266.84375 C 405.191406 267.554688 405.96875 268.191406 406.808594 268.753906 C 407.644531 269.3125 408.53125 269.789062 409.464844 270.171875 C 410.394531 270.558594 411.359375 270.851562 412.347656 271.046875 C 413.335938 271.246094 414.335938 271.34375 415.34375 271.34375 C 416.355469 271.34375 417.355469 271.246094 418.34375 271.046875 C 419.332031 270.851562 420.292969 270.558594 421.226562 270.171875 C 422.160156 269.789062 423.042969 269.3125 423.882812 268.753906 C 424.722656 268.191406 425.5 267.554688 426.210938 266.84375 C 426.925781 266.128906 427.5625 265.351562 428.125 264.511719 C 428.683594 263.675781 429.15625 262.789062 429.542969 261.855469 C 429.929688 260.921875 430.222656 259.960938 430.417969 258.972656 C 430.617188 257.984375 430.714844 256.984375 430.714844 255.976562 Z M 430.714844 255.976562 " fill-opacity="1" fill-rule="nonzero"/></g><g clip-path="url(#6638b1e517)"><path fill="#8b73ff" d="M 192.21875 430.714844 L 255.976562 430.714844 C 256.984375 430.714844 257.984375 430.617188 258.972656 430.417969 C 259.960938 430.222656 260.921875 429.929688 261.855469 429.542969 C 262.789062 429.15625 263.675781 428.683594 264.511719 428.125 C 265.351562 427.5625 266.128906 426.925781 266.84375 426.210938 C 267.554688 425.5 268.191406 424.722656 268.753906 423.882812 C 269.3125 423.042969 269.789062 422.160156 270.171875 421.226562 C 270.558594 420.292969 270.851562 419.332031 271.046875 418.34375 C 271.246094 417.355469 271.34375 416.355469 271.34375 415.34375 C 271.34375 414.335938 271.246094 413.335938 271.046875 412.347656 C 270.851562 411.355469 270.558594 410.394531 270.171875 409.464844 C 269.789062 408.53125 269.3125 407.644531 268.753906 406.808594 C 268.191406 405.96875 267.554688 405.191406 266.84375 404.476562 C 266.128906 403.765625 265.351562 403.128906 264.511719 402.566406 C 263.675781 402.007812 262.789062 401.53125 261.855469 401.148438 C 260.921875 400.761719 259.960938 400.46875 258.972656 400.273438 C 257.984375 400.074219 256.984375 399.976562 255.976562 399.976562 L 192.21875 399.976562 C 191.210938 399.976562 190.210938 400.074219 189.222656 400.273438 C 188.230469 400.46875 187.269531 400.761719 186.339844 401.148438 C 185.40625 401.53125 184.519531 402.007812 183.679688 402.566406 C 182.84375 403.128906 182.066406 403.765625 181.351562 404.476562 C 180.636719 405.191406 180 405.96875 179.441406 406.808594 C 178.878906 407.644531 178.40625 408.53125 178.019531 409.464844 C 177.632812 410.394531 177.34375 411.359375 177.144531 412.347656 C 176.949219 413.335938 176.851562 414.335938 176.851562 415.34375 C 176.851562 416.355469 176.949219 417.355469 177.144531 418.34375 C 177.34375 419.332031 177.632812 420.292969 178.019531 421.226562 C 178.40625 422.160156 178.878906 423.042969 179.441406 423.882812 C 180 424.722656 180.636719 425.5 181.351562 426.210938 C 182.066406 426.925781 182.84375 427.5625 183.679688 428.125 C 184.519531 428.683594 185.40625 429.15625 186.339844 429.542969 C 187.269531 429.929688 188.230469 430.222656 189.222656 430.417969 C 190.210938 430.617188 191.210938 430.714844 192.21875 430.714844 Z M 192.21875 430.714844 " fill-opacity="1" fill-rule="nonzero"/></g><path fill="#8b73ff" d="M 633.402344 611.679688 C 632.679688 611.007812 631.902344 610.410156 631.066406 609.886719 C 630.226562 609.367188 629.347656 608.929688 628.429688 608.574219 C 627.507812 608.222656 626.5625 607.960938 625.589844 607.789062 C 624.617188 607.617188 623.640625 607.539062 622.652344 607.558594 C 621.667969 607.574219 620.691406 607.6875 619.726562 607.890625 C 618.761719 608.097656 617.824219 608.394531 616.917969 608.777344 C 616.011719 609.164062 615.148438 609.632812 614.328125 610.183594 C 613.511719 610.734375 612.753906 611.359375 612.058594 612.058594 C 611.359375 612.753906 610.734375 613.511719 610.183594 614.328125 C 609.632812 615.148438 609.164062 616.011719 608.777344 616.917969 C 608.394531 617.824219 608.097656 618.761719 607.890625 619.726562 C 607.6875 620.691406 607.574219 621.667969 607.558594 622.652344 C 607.539062 623.640625 607.617188 624.617188 607.789062 625.589844 C 607.960938 626.5625 608.222656 627.507812 608.574219 628.429688 C 608.929688 629.347656 609.367188 630.226562 609.886719 631.066406 C 610.410156 631.902344 611.007812 632.679688 611.679688 633.402344 L 691.367188 713.085938 C 692.089844 713.777344 692.875 714.394531 693.71875 714.9375 C 694.558594 715.476562 695.445312 715.9375 696.375 716.308594 C 697.308594 716.679688 698.265625 716.960938 699.246094 717.152344 C 700.230469 717.339844 701.226562 717.4375 702.226562 717.4375 C 703.230469 717.4375 704.222656 717.339844 705.207031 717.152344 C 706.191406 716.960938 707.148438 716.679688 708.078125 716.308594 C 709.007812 715.9375 709.894531 715.476562 710.734375 714.9375 C 711.578125 714.394531 712.363281 713.777344 713.085938 713.085938 C 713.800781 712.371094 714.4375 711.597656 714.996094 710.757812 C 715.554688 709.917969 716.027344 709.035156 716.414062 708.101562 C 716.800781 707.171875 717.089844 706.210938 717.285156 705.222656 C 717.484375 704.230469 717.582031 703.234375 717.582031 702.226562 C 717.582031 701.214844 717.484375 700.21875 717.285156 699.230469 C 717.089844 698.238281 716.800781 697.28125 716.414062 696.347656 C 716.027344 695.417969 715.554688 694.53125 714.996094 693.691406 C 714.4375 692.855469 713.800781 692.078125 713.085938 691.363281 Z M 633.402344 611.679688 " fill-opacity="1" fill-rule="nonzero"/><path fill="#8b73ff" d="M 765.980469 527.488281 L 702.226562 527.488281 C 701.21875 527.488281 700.21875 527.585938 699.226562 527.78125 C 698.238281 527.980469 697.277344 528.269531 696.34375 528.65625 C 695.414062 529.042969 694.527344 529.515625 693.6875 530.078125 C 692.847656 530.636719 692.074219 531.273438 691.359375 531.988281 C 690.644531 532.703125 690.007812 533.476562 689.449219 534.316406 C 688.886719 535.15625 688.414062 536.042969 688.027344 536.976562 C 687.640625 537.90625 687.351562 538.867188 687.152344 539.859375 C 686.957031 540.847656 686.859375 541.847656 686.859375 542.855469 C 686.859375 543.863281 686.957031 544.863281 687.152344 545.855469 C 687.351562 546.84375 687.640625 547.804688 688.027344 548.738281 C 688.414062 549.667969 688.886719 550.554688 689.449219 551.394531 C 690.007812 552.234375 690.644531 553.007812 691.359375 553.722656 C 692.074219 554.4375 692.847656 555.074219 693.6875 555.632812 C 694.527344 556.195312 695.414062 556.667969 696.34375 557.054688 C 697.277344 557.441406 698.238281 557.730469 699.226562 557.929688 C 700.21875 558.125 701.21875 558.226562 702.226562 558.226562 L 765.980469 558.226562 C 766.992188 558.226562 767.992188 558.125 768.980469 557.929688 C 769.96875 557.730469 770.929688 557.441406 771.863281 557.054688 C 772.796875 556.667969 773.679688 556.195312 774.519531 555.632812 C 775.359375 555.074219 776.136719 554.4375 776.847656 553.722656 C 777.5625 553.007812 778.199219 552.234375 778.761719 551.394531 C 779.320312 550.554688 779.792969 549.667969 780.179688 548.738281 C 780.566406 547.804688 780.859375 546.84375 781.054688 545.855469 C 781.253906 544.863281 781.351562 543.863281 781.351562 542.855469 C 781.351562 541.847656 781.253906 540.847656 781.054688 539.859375 C 780.859375 538.867188 780.566406 537.90625 780.179688 536.976562 C 779.792969 536.042969 779.320312 535.15625 778.761719 534.316406 C 778.199219 533.480469 777.5625 532.703125 776.847656 531.988281 C 776.136719 531.273438 775.359375 530.636719 774.519531 530.078125 C 773.679688 529.515625 772.796875 529.042969 771.863281 528.65625 C 770.929688 528.269531 769.96875 527.980469 768.980469 527.78125 C 767.992188 527.585938 766.992188 527.488281 765.980469 527.488281 Z M 765.980469 527.488281 " fill-opacity="1" fill-rule="nonzero"/><path fill="#8b73ff" d="M 558.226562 765.980469 L 558.226562 702.226562 C 558.222656 701.21875 558.125 700.21875 557.929688 699.226562 C 557.730469 698.238281 557.441406 697.277344 557.054688 696.34375 C 556.667969 695.414062 556.195312 694.527344 555.632812 693.6875 C 555.074219 692.847656 554.4375 692.074219 553.722656 691.359375 C 553.007812 690.644531 552.234375 690.007812 551.394531 689.449219 C 550.554688 688.886719 549.667969 688.414062 548.738281 688.027344 C 547.804688 687.640625 546.84375 687.351562 545.855469 687.152344 C 544.863281 686.957031 543.863281 686.859375 542.855469 686.859375 C 541.847656 686.859375 540.847656 686.957031 539.859375 687.152344 C 538.867188 687.351562 537.90625 687.640625 536.976562 688.027344 C 536.042969 688.414062 535.15625 688.886719 534.316406 689.449219 C 533.480469 690.007812 532.703125 690.644531 531.988281 691.359375 C 531.273438 692.074219 530.636719 692.847656 530.078125 693.6875 C 529.515625 694.527344 529.042969 695.414062 528.65625 696.34375 C 528.269531 697.277344 527.980469 698.238281 527.78125 699.226562 C 527.585938 700.21875 527.488281 701.21875 527.488281 702.226562 L 527.488281 765.980469 C 527.488281 766.992188 527.585938 767.992188 527.78125 768.980469 C 527.980469 769.96875 528.269531 770.929688 528.65625 771.863281 C 529.042969 772.796875 529.515625 773.679688 530.078125 774.519531 C 530.636719 775.359375 531.273438 776.136719 531.988281 776.847656 C 532.703125 777.5625 533.476562 778.199219 534.316406 778.761719 C 535.15625 779.320312 536.042969 779.792969 536.972656 780.179688 C 537.90625 780.566406 538.867188 780.859375 539.859375 781.054688 C 540.847656 781.253906 541.847656 781.351562 542.855469 781.351562 C 543.863281 781.351562 544.863281 781.253906 545.855469 781.054688 C 546.84375 780.859375 547.804688 780.566406 548.738281 780.179688 C 549.667969 779.792969 550.554688 779.320312 551.394531 778.761719 C 552.234375 778.199219 553.007812 777.5625 553.722656 776.847656 C 554.4375 776.136719 555.074219 775.359375 555.632812 774.519531 C 556.195312 773.679688 556.667969 772.796875 557.054688 771.863281 C 557.441406 770.929688 557.730469 769.96875 557.929688 768.980469 C 558.125 767.992188 558.222656 766.992188 558.226562 765.980469 Z M 558.226562 765.980469 " fill-opacity="1" fill-rule="nonzero"/></svg>