<svg xmlns="http://www.w3.org/2000/svg" xmlns:xlink="http://www.w3.org/1999/xlink" width="352" zoomAndPan="magnify" viewBox="0 0 264 38.999999" height="52" preserveAspectRatio="xMidYMid meet" version="1.0"><defs><g/></defs><rect x="-26.4" width="316.8" fill="#ffffff" y="-3.9" height="46.799999" fill-opacity="1"/><rect x="-26.4" width="316.8" fill="#ffffff" y="-3.9" height="46.799999" fill-opacity="1"/><rect x="-26.4" width="316.8" fill="#ffffff" y="-3.9" height="46.799999" fill-opacity="1"/><path fill="#615dff" d="M 15.9375 26.632812 C 0.203125 35.621094 2.789062 37.097656 2.789062 19.121094 C 2.789062 1.121094 0.203125 2.597656 15.9375 11.585938 C 31.648438 20.597656 31.648438 17.644531 15.9375 26.632812 Z M 15.9375 26.632812 " fill-opacity="1" fill-rule="evenodd"/><path fill="#184feb" d="M 31.125 26.632812 C 15.390625 35.621094 17.976562 37.097656 17.976562 19.121094 C 17.976562 1.121094 15.390625 2.597656 31.125 11.585938 C 46.835938 20.597656 46.835938 17.644531 31.125 26.632812 Z M 31.125 26.632812 " fill-opacity="1" fill-rule="evenodd"/><path fill="#3dd9eb" d="M 46.3125 26.632812 C 30.574219 35.621094 33.164062 37.097656 33.164062 19.121094 C 33.164062 1.121094 30.574219 2.597656 46.3125 11.585938 C 62.019531 20.597656 62.019531 17.644531 46.3125 26.632812 Z M 46.3125 26.632812 " fill-opacity="1" fill-rule="evenodd"/><g fill="#000000" fill-opacity="1"><g transform="translate(66.078528, 28.874998)"><g><path d="M 3.71875 0.0625 C 2.5625 0.0625 1.984375 -0.242188 1.984375 -0.859375 L 1.984375 -19.328125 C 1.984375 -19.941406 2.5625 -20.25 3.71875 -20.25 L 4.96875 -20.25 C 5.425781 -20.25 5.804688 -20.195312 6.109375 -20.09375 C 6.421875 -19.988281 6.671875 -19.78125 6.859375 -19.46875 L 13.359375 -9.453125 C 13.742188 -8.898438 14.085938 -8.335938 14.390625 -7.765625 L 14.515625 -7.78125 C 14.472656 -8.226562 14.453125 -8.882812 14.453125 -9.75 L 14.453125 -19.328125 C 14.453125 -19.941406 15.03125 -20.25 16.1875 -20.25 L 17.015625 -20.25 C 18.171875 -20.25 18.75 -19.941406 18.75 -19.328125 L 18.75 -0.859375 C 18.75 -0.242188 18.171875 0.0625 17.015625 0.0625 L 15.921875 0.0625 C 15.460938 0.0625 15.078125 0.0078125 14.765625 -0.09375 C 14.460938 -0.207031 14.210938 -0.414062 14.015625 -0.71875 L 7.390625 -10.875 C 7.003906 -11.425781 6.65625 -11.992188 6.34375 -12.578125 L 6.234375 -12.546875 C 6.265625 -12.109375 6.28125 -11.453125 6.28125 -10.578125 L 6.28125 -0.859375 C 6.28125 -0.242188 5.707031 0.0625 4.5625 0.0625 Z M 3.71875 0.0625 "/></g></g></g><g fill="#000000" fill-opacity="1"><g transform="translate(86.814363, 28.874998)"><g><path d="M 1.765625 0.0625 C 0.585938 0.0625 0 -0.148438 0 -0.578125 C 0 -0.648438 0.0351562 -0.820312 0.109375 -1.09375 L 6.46875 -19.640625 C 6.613281 -20.046875 7.160156 -20.25 8.109375 -20.25 L 9.609375 -20.25 C 10.566406 -20.25 11.113281 -20.046875 11.25 -19.640625 L 17.59375 -1.09375 C 17.65625 -0.90625 17.6875 -0.734375 17.6875 -0.578125 C 17.6875 -0.148438 17.203125 0.0625 16.234375 0.0625 L 14.96875 0.0625 C 14.03125 0.0625 13.492188 -0.140625 13.359375 -0.546875 L 12.203125 -4.0625 L 5.390625 -4.0625 L 4.234375 -0.546875 C 4.097656 -0.140625 3.65625 0.0625 2.90625 0.0625 Z M 10.953125 -7.875 L 9.3125 -13.015625 C 9.175781 -13.390625 9.035156 -14.003906 8.890625 -14.859375 L 8.765625 -14.859375 C 8.742188 -14.742188 8.695312 -14.488281 8.625 -14.09375 C 8.5625 -13.695312 8.460938 -13.335938 8.328125 -13.015625 L 6.640625 -7.875 Z M 10.953125 -7.875 "/></g></g></g><g fill="#000000" fill-opacity="1"><g transform="translate(104.493172, 28.874998)"><g><path d="M 3.921875 0.0625 C 2.765625 0.0625 2.1875 -0.242188 2.1875 -0.859375 L 2.1875 -19.03125 C 2.1875 -19.4375 2.273438 -19.726562 2.453125 -19.90625 C 2.640625 -20.09375 2.9375 -20.1875 3.34375 -20.1875 L 12.828125 -20.1875 C 13.140625 -20.1875 13.363281 -20.070312 13.5 -19.84375 C 13.632812 -19.613281 13.703125 -19.25 13.703125 -18.75 L 13.703125 -17.859375 C 13.703125 -17.359375 13.632812 -16.988281 13.5 -16.75 C 13.363281 -16.519531 13.140625 -16.40625 12.828125 -16.40625 L 6.640625 -16.40625 L 6.640625 -12.203125 L 12.640625 -12.203125 C 12.941406 -12.203125 13.160156 -12.085938 13.296875 -11.859375 C 13.429688 -11.628906 13.5 -11.265625 13.5 -10.765625 L 13.5 -9.859375 C 13.5 -9.359375 13.429688 -8.992188 13.296875 -8.765625 C 13.160156 -8.535156 12.941406 -8.421875 12.640625 -8.421875 L 6.640625 -8.421875 L 6.640625 -0.859375 C 6.640625 -0.242188 6.0625 0.0625 4.90625 0.0625 Z M 3.921875 0.0625 "/></g></g></g><g fill="#000000" fill-opacity="1"><g transform="translate(118.999599, 28.874998)"><g><path d="M 3.921875 0.0625 C 2.765625 0.0625 2.1875 -0.242188 2.1875 -0.859375 L 2.1875 -19.328125 C 2.1875 -19.941406 2.765625 -20.25 3.921875 -20.25 L 4.9375 -20.25 C 6.082031 -20.25 6.65625 -19.941406 6.65625 -19.328125 L 6.65625 -12.203125 L 14.453125 -12.203125 L 14.453125 -19.328125 C 14.453125 -19.941406 15.03125 -20.25 16.1875 -20.25 L 17.1875 -20.25 C 18.34375 -20.25 18.921875 -19.941406 18.921875 -19.328125 L 18.921875 -0.859375 C 18.921875 -0.242188 18.34375 0.0625 17.1875 0.0625 L 16.1875 0.0625 C 15.03125 0.0625 14.453125 -0.242188 14.453125 -0.859375 L 14.453125 -8.390625 L 6.65625 -8.390625 L 6.65625 -0.859375 C 6.65625 -0.242188 6.082031 0.0625 4.9375 0.0625 Z M 3.921875 0.0625 "/></g></g></g><g fill="#000000" fill-opacity="1"><g transform="translate(140.139193, 28.874998)"><g><path d="M 1.765625 0.0625 C 0.585938 0.0625 0 -0.148438 0 -0.578125 C 0 -0.648438 0.0351562 -0.820312 0.109375 -1.09375 L 6.46875 -19.640625 C 6.613281 -20.046875 7.160156 -20.25 8.109375 -20.25 L 9.609375 -20.25 C 10.566406 -20.25 11.113281 -20.046875 11.25 -19.640625 L 17.59375 -1.09375 C 17.65625 -0.90625 17.6875 -0.734375 17.6875 -0.578125 C 17.6875 -0.148438 17.203125 0.0625 16.234375 0.0625 L 14.96875 0.0625 C 14.03125 0.0625 13.492188 -0.140625 13.359375 -0.546875 L 12.203125 -4.0625 L 5.390625 -4.0625 L 4.234375 -0.546875 C 4.097656 -0.140625 3.65625 0.0625 2.90625 0.0625 Z M 10.953125 -7.875 L 9.3125 -13.015625 C 9.175781 -13.390625 9.035156 -14.003906 8.890625 -14.859375 L 8.765625 -14.859375 C 8.742188 -14.742188 8.695312 -14.488281 8.625 -14.09375 C 8.5625 -13.695312 8.460938 -13.335938 8.328125 -13.015625 L 6.640625 -7.875 Z M 10.953125 -7.875 "/></g></g></g><g fill="#000000" fill-opacity="1"><g transform="translate(157.818002, 28.874998)"><g><path d="M 3.71875 0.0625 C 2.5625 0.0625 1.984375 -0.242188 1.984375 -0.859375 L 1.984375 -19.328125 C 1.984375 -19.941406 2.5625 -20.25 3.71875 -20.25 L 4.96875 -20.25 C 5.425781 -20.25 5.804688 -20.195312 6.109375 -20.09375 C 6.421875 -19.988281 6.671875 -19.78125 6.859375 -19.46875 L 13.359375 -9.453125 C 13.742188 -8.898438 14.085938 -8.335938 14.390625 -7.765625 L 14.515625 -7.78125 C 14.472656 -8.226562 14.453125 -8.882812 14.453125 -9.75 L 14.453125 -19.328125 C 14.453125 -19.941406 15.03125 -20.25 16.1875 -20.25 L 17.015625 -20.25 C 18.171875 -20.25 18.75 -19.941406 18.75 -19.328125 L 18.75 -0.859375 C 18.75 -0.242188 18.171875 0.0625 17.015625 0.0625 L 15.921875 0.0625 C 15.460938 0.0625 15.078125 0.0078125 14.765625 -0.09375 C 14.460938 -0.207031 14.210938 -0.414062 14.015625 -0.71875 L 7.390625 -10.875 C 7.003906 -11.425781 6.65625 -11.992188 6.34375 -12.578125 L 6.234375 -12.546875 C 6.265625 -12.109375 6.28125 -11.453125 6.28125 -10.578125 L 6.28125 -0.859375 C 6.28125 -0.242188 5.707031 0.0625 4.5625 0.0625 Z M 3.71875 0.0625 "/></g></g></g><g fill="#000000" fill-opacity="1"><g transform="translate(178.553836, 28.874998)"><g><path d="M 2.359375 0.0625 C 1.210938 0.0625 0.640625 -0.242188 0.640625 -0.859375 L 0.640625 -3.515625 C 0.640625 -4.128906 1.210938 -4.4375 2.359375 -4.4375 L 3.28125 -4.4375 C 4.4375 -4.4375 5.015625 -4.128906 5.015625 -3.515625 L 5.015625 -0.859375 C 5.015625 -0.242188 4.4375 0.0625 3.28125 0.0625 Z M 2.359375 0.0625 "/></g></g></g><g fill="#000000" fill-opacity="1"><g transform="translate(184.264117, 28.874998)"><g><path d="M 7.40625 0.0625 C 6.257812 0.0625 5.6875 -0.242188 5.6875 -0.859375 L 5.6875 -16.40625 L 1.09375 -16.40625 C 0.789062 -16.40625 0.570312 -16.519531 0.4375 -16.75 C 0.300781 -16.988281 0.234375 -17.359375 0.234375 -17.859375 L 0.234375 -18.75 C 0.234375 -19.25 0.300781 -19.613281 0.4375 -19.84375 C 0.570312 -20.070312 0.789062 -20.1875 1.09375 -20.1875 L 14.734375 -20.1875 C 15.046875 -20.1875 15.269531 -20.070312 15.40625 -19.84375 C 15.539062 -19.613281 15.609375 -19.25 15.609375 -18.75 L 15.609375 -17.859375 C 15.609375 -17.359375 15.539062 -16.988281 15.40625 -16.75 C 15.269531 -16.519531 15.046875 -16.40625 14.734375 -16.40625 L 10.15625 -16.40625 L 10.15625 -0.859375 C 10.15625 -0.242188 9.578125 0.0625 8.421875 0.0625 Z M 7.40625 0.0625 "/></g></g></g><g fill="#000000" fill-opacity="1"><g transform="translate(200.097177, 28.874998)"><g><path d="M 3.34375 0 C 2.9375 0 2.640625 -0.0859375 2.453125 -0.265625 C 2.273438 -0.453125 2.1875 -0.75 2.1875 -1.15625 L 2.1875 -19.03125 C 2.1875 -19.4375 2.273438 -19.726562 2.453125 -19.90625 C 2.640625 -20.09375 2.9375 -20.1875 3.34375 -20.1875 L 13.46875 -20.1875 C 13.78125 -20.1875 14 -20.070312 14.125 -19.84375 C 14.257812 -19.613281 14.328125 -19.25 14.328125 -18.75 L 14.328125 -17.859375 C 14.328125 -17.359375 14.257812 -16.988281 14.125 -16.75 C 14 -16.519531 13.78125 -16.40625 13.46875 -16.40625 L 6.640625 -16.40625 L 6.640625 -12.234375 L 12.6875 -12.234375 C 13 -12.234375 13.222656 -12.113281 13.359375 -11.875 C 13.492188 -11.644531 13.5625 -11.28125 13.5625 -10.78125 L 13.5625 -9.890625 C 13.5625 -9.390625 13.492188 -9.023438 13.359375 -8.796875 C 13.222656 -8.566406 13 -8.453125 12.6875 -8.453125 L 6.640625 -8.453125 L 6.640625 -3.78125 L 13.5 -3.78125 C 13.800781 -3.78125 14.019531 -3.664062 14.15625 -3.4375 C 14.289062 -3.207031 14.359375 -2.84375 14.359375 -2.34375 L 14.359375 -1.4375 C 14.359375 -0.9375 14.289062 -0.570312 14.15625 -0.34375 C 14.019531 -0.113281 13.800781 0 13.5 0 Z M 3.34375 0 "/></g></g></g><g fill="#000000" fill-opacity="1"><g transform="translate(215.84372, 28.874998)"><g><path d="M 10.78125 0.234375 C 7.550781 0.234375 5.160156 -0.601562 3.609375 -2.28125 C 2.066406 -3.96875 1.296875 -6.59375 1.296875 -10.15625 C 1.296875 -17 4.507812 -20.421875 10.9375 -20.421875 C 11.894531 -20.421875 12.875 -20.316406 13.875 -20.109375 C 14.875 -19.910156 15.648438 -19.648438 16.203125 -19.328125 C 16.703125 -19.035156 16.953125 -18.726562 16.953125 -18.40625 C 16.953125 -18.132812 16.847656 -17.78125 16.640625 -17.34375 C 16.429688 -16.914062 16.175781 -16.53125 15.875 -16.1875 C 15.582031 -15.851562 15.316406 -15.6875 15.078125 -15.6875 C 15.023438 -15.6875 14.796875 -15.769531 14.390625 -15.9375 C 13.984375 -16.113281 13.492188 -16.269531 12.921875 -16.40625 C 12.347656 -16.539062 11.65625 -16.609375 10.84375 -16.609375 C 9.15625 -16.609375 7.898438 -16.070312 7.078125 -15 C 6.265625 -13.925781 5.859375 -12.300781 5.859375 -10.125 C 5.859375 -5.738281 7.5 -3.546875 10.78125 -3.546875 C 11.644531 -3.546875 12.394531 -3.628906 13.03125 -3.796875 C 13.664062 -3.972656 14.285156 -4.195312 14.890625 -4.46875 C 15.191406 -4.625 15.398438 -4.703125 15.515625 -4.703125 C 15.804688 -4.703125 16.082031 -4.535156 16.34375 -4.203125 C 16.601562 -3.878906 16.8125 -3.507812 16.96875 -3.09375 C 17.132812 -2.6875 17.21875 -2.382812 17.21875 -2.1875 C 17.21875 -1.6875 16.878906 -1.242188 16.203125 -0.859375 C 15.578125 -0.492188 14.742188 -0.21875 13.703125 -0.03125 C 12.660156 0.144531 11.6875 0.234375 10.78125 0.234375 Z M 10.78125 0.234375 "/></g></g></g><g fill="#000000" fill-opacity="1"><g transform="translate(233.695575, 28.874998)"><g><path d="M 3.921875 0.0625 C 2.765625 0.0625 2.1875 -0.242188 2.1875 -0.859375 L 2.1875 -19.328125 C 2.1875 -19.941406 2.765625 -20.25 3.921875 -20.25 L 4.9375 -20.25 C 6.082031 -20.25 6.65625 -19.941406 6.65625 -19.328125 L 6.65625 -12.203125 L 14.453125 -12.203125 L 14.453125 -19.328125 C 14.453125 -19.941406 15.03125 -20.25 16.1875 -20.25 L 17.1875 -20.25 C 18.34375 -20.25 18.921875 -19.941406 18.921875 -19.328125 L 18.921875 -0.859375 C 18.921875 -0.242188 18.34375 0.0625 17.1875 0.0625 L 16.1875 0.0625 C 15.03125 0.0625 14.453125 -0.242188 14.453125 -0.859375 L 14.453125 -8.390625 L 6.65625 -8.390625 L 6.65625 -0.859375 C 6.65625 -0.242188 6.082031 0.0625 4.9375 0.0625 Z M 3.921875 0.0625 "/></g></g></g></svg>